screens;
 
http://imgcum.com/img-5086e5aedd1bc.html
 
http://imgcum.com/img-5086e5c0815af.html

Video
ID                                       : 2
Format                                   : AVC
Format/Info                              : Advanced Video Codec
Format profile                           : Main@L3.1
Format settings, CABAC                   : No
Format settings, ReFrames                : 2 frames
Format settings, GOP                     : M=2, N=24
Codec ID                                 : avc1
Codec ID/Info                            : Advanced Video Coding
Duration                                 : 28mn 49s
Bit rate                                 : 2 496 Kbps
Width                                    : 1 280 pixels
Height                                   : 720 pixels
Display aspect ratio                     : 16:9
Frame rate mode                          : Constant
Frame rate                               : 25.000 fps
Color space                              : YUV
Chroma subsampling                       : 4:2:0
Bit depth                                : 8 bits
Scan type                                : Progressive
Bits/(Pixel*Frame)                       : 0.108
Stream size                              : 515 MiB (96%)
Language                                 : English
Encoded date                             : UTC 2012-01-18 04:03:32
Tagged date                              : UTC 2012-01-18 04:05:33
Color primaries                          : BT.709-5, BT.1361, IEC 61966-2-4, SMPTE RP177
Transfer characteristics                 : BT.709-5, BT.1361
Matrix coefficients                      : BT.709-5, BT.1361, IEC 61966-2-4 709, SMPTE RP177

Audio
ID                                       : 1
Format                                   : AAC
Format/Info                              : Advanced Audio Codec
Format profile                           : LC
Codec ID                                 : 40
Duration                                 : 28mn 49s
Source duration                          : 28mn 49s
Bit rate mode                            : Constant
Bit rate                                 : 103 Kbps
Nominal bit rate                         : 128 Kbps
Channel(s)                               : 2 channels
Channel positions                        : Front: L R
Sampling rate                            : 44.1 KHz
Compression mode                         : Lossy
Stream size                              : 21.2 MiB (4%)
Source stream size                       : 21.2 MiB (4%)
Language                                 : English
Encoded date                             : UTC 2012-01-18 04:03:31
Tagged date                              : UTC 2012-01-18 04:05:33
